<svg width="88" height="74" viewBox="0 0 88 74" fill="none" xmlns="http://www.w3.org/2000/svg">
<path d="M44 15.5V58M11 58V45C11 39.4772 15.4772 35 21 35H67C72.5228 35 77 39.4772 77 45V58" stroke="#121217" stroke-width="2"/>
<path fill-rule="evenodd" clip-rule="evenodd" d="M34.625 3.84375C34.625 2.73918 35.5204 1.84375 36.625 1.84375H51.375C52.4796 1.84375 53.375 2.73918 53.375 3.84375V13.9062C53.375 15.0108 52.4796 15.9062 51.375 15.9062H36.625C35.5204 15.9062 34.625 15.0108 34.625 13.9062V3.84375ZM1.8125 60.0938C1.8125 58.9892 2.70793 58.0938 3.8125 58.0938H18.5625C19.6671 58.0938 20.5625 58.9892 20.5625 60.0938V70.1562C20.5625 71.2608 19.6671 72.1562 18.5625 72.1562H3.8125C2.70793 72.1562 1.8125 71.2608 1.8125 70.1562V60.0938ZM34.625 60.0938C34.625 58.9892 35.5204 58.0938 36.625 58.0938H51.375C52.4796 58.0938 53.375 58.9892 53.375 60.0938V70.1562C53.375 71.2608 52.4796 72.1562 51.375 72.1562H36.625C35.5204 72.1562 34.625 71.2608 34.625 70.1562V60.0938ZM67.4375 60.0938C67.4375 58.9892 68.3329 58.0938 69.4375 58.0938H84.1875C85.2921 58.0938 86.1875 58.9892 86.1875 60.0938V70.1562C86.1875 71.2608 85.2921 72.1562 84.1875 72.1562H69.4375C68.3329 72.1562 67.4375 71.2608 67.4375 70.1562V60.0938Z" stroke="#FF7113" stroke-width="2"/>
</svg>
