<svg width="128" height="128" viewBox="0 0 128 128" fill="none" xmlns="http://www.w3.org/2000/svg">
<path d="M0 64C0 37.528 0 24.292 6.66428 14.9662C8.95523 11.7604 11.7604 8.95523 14.9662 6.66428C24.292 0 37.528 0 64 0C90.472 0 103.708 0 113.034 6.66428C116.24 8.95523 119.045 11.7604 121.336 14.9662C128 24.292 128 37.528 128 64C128 90.472 128 103.708 121.336 113.034C119.045 116.24 116.24 119.045 113.034 121.336C103.708 128 90.472 128 64 128C37.528 128 24.292 128 14.9662 121.336C11.7604 119.045 8.95523 116.24 6.66428 113.034C0 103.708 0 90.472 0 64Z" fill="#FF7113"/>
<path d="M104.095 77.7414C98.4293 94.4046 82.6506 106.394 64.0715 106.394C57.8494 106.394 51.9415 105.048 46.6221 102.634C47.2161 101.889 47.6735 101.031 47.9563 100.097C52.8758 102.304 58.3301 103.533 64.0715 103.533C81.0488 103.533 95.518 92.7956 101.06 77.7414H104.095Z" fill="white"/>
<path d="M40.6609 92.9854C43.367 92.9855 45.5606 95.1791 45.5607 97.8852C45.5607 100.591 43.367 102.785 40.6609 102.785C37.9547 102.785 35.7608 100.591 35.7608 97.8852C35.7608 95.1791 37.9548 92.9854 40.6609 92.9854Z" fill="white"/>
<path d="M52.664 23.4254C52.7171 24.4033 52.8526 25.3592 53.0628 26.2868C36.659 31.0505 24.669 46.19 24.6689 64.1303C24.669 74.925 29.0105 84.7053 36.0418 91.822C35.2777 92.4051 34.6267 93.1289 34.1284 93.9554C26.515 86.312 21.8087 75.7708 21.8086 64.1303C21.8087 44.742 34.8645 28.4033 52.664 23.4254Z" fill="white"/>
<path d="M44.3903 71.1513C45.3976 73.9812 47.0338 76.6377 49.2992 78.903C55.3931 84.9969 64.315 86.5385 71.8404 83.5291C72.0926 84.5059 72.6566 85.3569 73.4189 85.9718C64.7581 89.675 54.3444 87.9935 47.2765 80.9257C44.6029 78.2521 42.7 75.0994 41.5677 71.7442C42.5604 71.7035 43.5103 71.4972 44.3903 71.1513Z" fill="white"/>
<path d="M76.3215 79.9187C77.6746 79.9187 78.7716 81.0157 78.7716 82.3688C78.7716 83.7219 77.6746 84.8189 76.3215 84.8189C74.9684 84.8189 73.8714 83.7219 73.8714 82.3688C73.8714 81.0157 74.9684 79.9187 76.3215 79.9187Z" fill="white"/>
<path d="M91.4552 54.9963C92.1003 54.9963 92.7269 55.1068 93.3351 55.328C93.9618 55.5491 94.5518 55.8807 95.1047 56.3231C95.6761 56.747 96.1738 57.3186 96.5977 58.0375C97.04 58.7563 97.2611 59.6134 97.2611 60.6087V70.5891C97.1505 71.695 96.5423 72.2941 95.4364 72.3863C94.9203 72.3863 94.4687 72.2205 94.0816 71.8887C93.713 71.5385 93.5289 71.1052 93.5289 70.5891V60.8297C93.5289 60.3874 93.4458 60.0188 93.28 59.7239C93.1141 59.4106 92.9296 59.1709 92.7269 59.005C92.5242 58.8207 92.3122 58.6915 92.0911 58.6178C91.8699 58.5256 91.6488 58.4799 91.4277 58.4798C91.2065 58.4798 90.9851 58.5256 90.7639 58.6178C90.5612 58.6915 90.3584 58.8207 90.1557 59.005C89.9529 59.1709 89.7688 59.4106 89.6029 59.7239C89.4371 60.0188 89.3448 60.3874 89.3264 60.8297V70.5891C89.2158 71.695 88.6076 72.2941 87.5017 72.3863C86.9856 72.3863 86.534 72.2205 86.1469 71.8887C85.7783 71.5385 85.5939 71.1052 85.5939 70.5891V60.8297C85.5939 60.3874 85.5111 60.0188 85.3453 59.7239C85.1794 59.4106 84.9949 59.1709 84.7922 59.005C84.5894 58.8207 84.3775 58.6915 84.1564 58.6178C83.9352 58.5256 83.7141 58.4799 83.493 58.4798C83.2718 58.4798 83.0504 58.5256 82.8292 58.6178C82.6265 58.6915 82.4237 58.8207 82.221 59.005C82.0182 59.1709 81.8341 59.4106 81.6682 59.7239C81.5024 60.0188 81.4101 60.3874 81.3917 60.8297V70.5891C81.2995 71.695 80.7004 72.2941 79.5946 72.3863C79.0785 72.3863 78.6269 72.2205 78.2398 71.8887C77.8712 71.5385 77.6867 71.1052 77.6867 70.5891V60.6087C77.7236 59.6134 77.9542 58.7563 78.3781 58.0375C78.802 57.3186 79.2997 56.747 79.8711 56.3231C80.4424 55.8808 81.0321 55.5491 81.6403 55.328C82.267 55.1068 82.8939 54.9963 83.5205 54.9963C84.1656 54.9963 84.7922 55.1068 85.4004 55.328C86.0271 55.5491 86.6262 55.8716 87.1976 56.2955C87.2897 56.3876 87.3911 56.4799 87.5017 56.572C87.5938 56.4799 87.6952 56.3876 87.8058 56.2955C88.3772 55.8716 88.9671 55.5491 89.5753 55.328C90.202 55.1068 90.8286 54.9963 91.4552 54.9963Z" fill="white"/>
<path d="M102.597 55.3004C103.113 55.3004 103.556 55.4753 103.924 55.8255C104.293 56.1572 104.486 56.5812 104.505 57.0972V63.7602C104.486 64.5159 104.533 65.2164 104.643 65.8615C104.772 66.4881 105.067 67.0503 105.528 67.5479C105.989 68.0455 106.569 68.3127 107.269 68.3496H116.117C116.633 68.368 117.057 68.5616 117.389 68.9303C117.739 69.2989 117.914 69.7414 117.914 70.2574C117.895 70.7551 117.711 71.1789 117.361 71.5291C117.029 71.8608 116.614 72.0361 116.117 72.0546H106.33C105.039 71.9808 103.97 71.5475 103.122 70.755C102.293 69.944 101.694 68.958 101.325 67.7969C100.975 66.6357 100.791 65.4006 100.772 64.0919V57.0972C100.791 56.5996 100.975 56.1848 101.325 55.8531C101.676 55.503 102.099 55.3188 102.597 55.3004Z" fill="white"/>
<path d="M57.9744 55.7703H58.251C59.578 55.8441 60.9512 56.5904 62.3704 58.0095C63.0707 58.7283 63.7157 59.5394 64.3055 60.4425C64.8953 59.5394 65.5496 58.7283 66.2684 58.0095C67.6692 56.5903 69.0332 55.8441 70.3603 55.7703H70.6368V55.7428H72.9591C73.4752 55.7428 73.9085 55.9269 74.2587 56.2955C74.6273 56.6457 74.8117 57.079 74.8117 57.5951C74.8117 58.1111 74.6272 58.5441 74.2587 58.8943C73.9085 59.2629 73.4752 59.4474 72.9591 59.4474H70.6368C69.9364 59.5211 69.2085 59.9819 68.4528 60.8297C67.6971 61.6776 67.0702 62.5716 66.5726 63.5116C66.462 63.7143 66.3514 63.9077 66.2409 64.0919C66.2777 64.1472 66.3147 64.2028 66.3515 64.2581C66.8492 65.2165 67.4758 66.1195 68.2314 66.9673C68.9871 67.8151 69.7154 68.2667 70.4158 68.322H72.7381C73.2541 68.322 73.6871 68.5065 74.0373 68.8751C74.4059 69.2253 74.5903 69.6583 74.5904 70.1743C74.5904 70.6904 74.4059 71.1329 74.0373 71.5015C73.6871 71.8517 73.2541 72.027 72.7381 72.027H70.1392C68.8122 71.9533 67.4482 71.2158 66.0474 69.815C65.4207 69.1699 64.84 68.4695 64.3055 67.7138C63.7709 68.4695 63.1905 69.1699 62.5638 69.815C61.163 71.2158 59.7991 71.9533 58.472 72.027H55.8732C55.3571 72.027 54.9147 71.8517 54.546 71.5015C54.1959 71.1329 54.0209 70.6904 54.0209 70.1743C54.0209 69.6584 54.2051 69.2252 54.5736 68.8751C54.9238 68.5065 55.3571 68.322 55.8732 68.322H58.1955C58.8959 68.2667 59.6241 67.8151 60.3798 66.9673C61.1354 66.1195 61.7621 65.2165 62.2597 64.2581C62.2966 64.2028 62.3335 64.1472 62.3704 64.0919C62.2598 63.9077 62.1492 63.7143 62.0387 63.5116C61.541 62.5716 60.9141 61.6776 60.1585 60.8297C59.4028 59.9819 58.6748 59.5211 57.9744 59.4474H55.6522C55.1361 59.4474 54.7028 59.2629 54.3526 58.8943C53.984 58.5441 53.7995 58.1111 53.7995 57.5951C53.7995 57.079 53.9748 56.6457 54.325 56.2955C54.6936 55.9269 55.1361 55.7428 55.6522 55.7428H57.9744V55.7703Z" fill="white"/>
<path d="M41.2052 58.1412C43.9114 58.1412 46.105 60.3352 46.105 63.0413C46.105 65.7474 43.9113 67.941 41.2052 67.9411C38.4991 67.9411 36.3051 65.7474 36.3051 63.0413C36.3051 60.3351 38.4991 58.1412 41.2052 58.1412Z" fill="white"/>
<path d="M47.2765 47.3349C54.1466 40.4648 64.1782 38.683 72.6881 41.9896C72.0309 42.693 71.5494 43.5626 71.3131 44.5284C63.9016 41.7957 55.2514 43.4054 49.2992 49.3576C47.5317 51.1251 46.1472 53.1305 45.1455 55.2707C44.2982 54.8401 43.371 54.5445 42.392 54.4111C43.5418 51.8451 45.17 49.4414 47.2765 47.3349Z" fill="white"/>
<path d="M86.0261 28.0102C94.252 33.0207 100.631 40.7621 103.905 49.975H100.855C97.756 41.9283 92.0934 35.1549 84.8673 30.6562C85.3246 29.8143 85.7131 28.9298 86.0261 28.0102Z" fill="white"/>
<path d="M76.8659 42.8971C78.5196 42.8971 79.8603 44.2377 79.8603 45.8915C79.8602 47.5452 78.5196 48.8859 76.8659 48.8859C75.2122 48.8858 73.8715 47.5452 73.8714 45.8915C73.8714 44.2378 75.2121 42.8972 76.8659 42.8971Z" fill="white"/>
<path d="M69.7883 11.3196C75.9523 11.3197 80.9493 16.3166 80.9493 22.4805C80.9493 28.6445 75.9523 33.6414 69.7883 33.6415C63.6243 33.6415 58.627 28.6446 58.627 22.4805C58.627 16.3165 63.6243 11.3196 69.7883 11.3196Z" fill="white"/>
</svg>
